# This file uses centimeters as units for non-parametric coordinates.

mtllib Core.mtl
g default
v -0.028575 -0.106661 0.000000
v -0.024401 -0.106661 0.012795
v -0.012997 -0.106661 0.022162
v 0.002579 -0.106661 0.025590
v 0.018156 -0.106661 0.022162
v 0.029560 -0.106661 0.012795
v 0.033734 -0.106661 0.000000
v -0.057606 -0.095844 0.000000
v -0.049542 -0.095844 0.024718
v -0.027513 -0.095844 0.042813
v 0.002579 -0.095844 0.049437
v 0.032672 -0.095844 0.042813
v 0.054701 -0.095844 0.024718
v 0.062764 -0.095844 0.000000
v -0.082535 -0.078636 0.000000
v -0.071132 -0.078636 0.034957
v -0.039978 -0.078636 0.060547
v 0.002579 -0.078636 0.069914
v 0.045137 -0.078636 0.060547
v 0.076291 -0.078636 0.034957
v 0.087694 -0.078636 0.000000
v -0.101664 -0.056211 0.000000
v -0.087698 -0.056211 0.042813
v -0.049542 -0.056211 0.074155
v 0.002579 -0.056211 0.085627
v 0.054701 -0.056211 0.074155
v 0.092857 -0.056211 0.042813
v 0.106823 -0.056211 0.000000
v -0.113689 -0.030096 0.000000
v -0.098112 -0.030096 0.047752
v -0.055555 -0.030096 0.082709
v 0.002579 -0.030096 0.095504
v 0.060714 -0.030096 0.082709
v 0.103271 -0.030096 0.047752
v 0.118848 -0.030096 0.000000
v -0.117790 -0.002071 0.000000
v -0.101664 -0.002071 0.049437
v -0.057606 -0.002071 0.085627
v 0.002579 -0.002071 0.098873
v 0.062764 -0.002071 0.085627
v 0.106823 -0.002071 0.049437
v 0.122949 -0.002071 0.000000
v -0.113689 0.025954 0.000000
v -0.098112 0.025954 0.047752
v -0.055555 0.025954 0.082709
v 0.002579 0.025954 0.095504
v 0.060714 0.025954 0.082709
v 0.103271 0.025954 0.047752
v 0.118848 0.025954 0.000000
v -0.101664 0.052069 0.000000
v -0.087698 0.052069 0.042813
v -0.049542 0.052069 0.074155
v 0.002579 0.052069 0.085627
v 0.054701 0.052069 0.074155
v 0.092857 0.052069 0.042813
v 0.106823 0.052069 0.000000
v -0.082535 0.074494 0.000000
v -0.071132 0.074494 0.034957
v -0.039978 0.074494 0.060547
v 0.002579 0.074494 0.069914
v 0.045137 0.074494 0.060547
v 0.076291 0.074494 0.034957
v 0.087694 0.074494 0.000000
v -0.057606 0.091702 0.000000
v -0.049542 0.091702 0.024718
v -0.027513 0.091702 0.042813
v 0.002579 0.091702 0.049437
v 0.032672 0.091702 0.042813
v 0.054701 0.091702 0.024718
v 0.062764 0.091702 0.000000
v -0.028575 0.102519 0.000000
v -0.024401 0.102519 0.012795
v -0.012997 0.102519 0.022162
v 0.002579 0.102519 0.025590
v 0.018156 0.102519 0.022162
v 0.029560 0.102519 0.012795
v 0.033734 0.102519 0.000000
v 0.002579 -0.110350 0.000000
v 0.002579 0.106209 0.000000
v 0.141613 -0.193171 0.001163
v 0.190652 -0.148080 0.001163
v 0.035519 -0.119818 0.001163
v 0.124517 -0.037985 0.001163
v 0.124517 -0.037985 0.070664
v 0.035519 -0.119818 0.070664
v 0.192953 -0.197706 0.001163
v 0.091643 -0.092984 0.001163
v 0.091643 -0.092984 0.070664
v 0.192953 -0.197706 0.001163
v 0.193642 0.146184 0.001163
v 0.145602 0.192338 0.001163
v 0.126997 0.035753 0.001163
v 0.039812 0.119515 0.001163
v 0.039812 0.119515 0.070664
v 0.126997 0.035753 0.070664
v 0.194991 0.197706 0.001163
v 0.096740 0.090109 0.001163
v 0.096740 0.090109 0.070664
v 0.194991 0.197706 0.001163
v -0.145390 0.187087 0.001163
v -0.192886 0.140373 0.001163
v -0.036890 0.117342 0.001163
v -0.123087 0.032564 0.001163
v -0.123087 0.032564 0.070664
v -0.036890 0.117342 0.070664
v -0.196853 0.189894 0.001163
v -0.092080 0.088637 0.001163
v -0.092080 0.088637 0.070664
v -0.196853 0.189894 0.001163
v -0.195731 -0.144215 0.001163
v -0.148589 -0.191286 0.001163
v -0.126971 -0.035088 0.001163
v -0.041416 -0.120515 0.001163
v -0.041416 -0.120515 0.070664
v -0.126971 -0.035088 0.070664
v -0.198072 -0.195701 0.001163
v -0.097767 -0.090017 0.001163
v -0.097767 -0.090017 0.070664
v -0.198072 -0.195701 0.001163
vt 0.529498 0.347644
vt 0.541161 0.364041
vt 0.501794 0.394296
vt 0.473290 0.369404
vt 0.562719 0.374395
vt 0.542162 0.407761
vt 0.588916 0.378584
vt 0.587955 0.413146
vt 0.615305 0.375856
vt 0.633978 0.410313
vt 0.637405 0.366716
vt 0.675031 0.399111
vt 0.649961 0.350992
vt 0.704873 0.375841
vt 0.472181 0.429785
vt 0.426743 0.404447
vt 0.527022 0.442323
vt 0.587003 0.447396
vt 0.647174 0.445662
vt 0.702627 0.436190
vt 0.749403 0.413415
vt 0.451546 0.468446
vt 0.392845 0.448405
vt 0.516363 0.478138
vt 0.586032 0.482323
vt 0.655827 0.482014
vt 0.721083 0.475938
vt 0.780806 0.459188
vt 0.439016 0.508927
vt 0.372556 0.497413
vt 0.509617 0.514958
vt 0.585038 0.518108
vt 0.660518 0.519152
vt 0.731344 0.517052
vt 0.798341 0.509247
vt 0.433862 0.550364
vt 0.366006 0.548478
vt 0.506459 0.552382
vt 0.584026 0.554538
vt 0.661591 0.556694
vt 0.734189 0.558712
vt 0.802045 0.560597
vt 0.436707 0.592024
vt 0.369710 0.599828
vt 0.507534 0.589924
vt 0.583013 0.590968
vt 0.658434 0.594118
vt 0.729035 0.600149
vt 0.795495 0.611663
vt 0.446968 0.633138
vt 0.387245 0.649887
vt 0.512224 0.627062
vt 0.582018 0.626752
vt 0.651688 0.630938
vt 0.716505 0.640629
vt 0.775206 0.660670
vt 0.465424 0.672886
vt 0.418649 0.695661
vt 0.520877 0.663413
vt 0.581047 0.661680
vt 0.641029 0.666753
vt 0.695870 0.679291
vt 0.741309 0.704629
vt 0.493020 0.709964
vt 0.463178 0.733235
vt 0.534073 0.698762
vt 0.580096 0.695929
vt 0.625890 0.701314
vt 0.666257 0.714780
vt 0.694761 0.739672
vt 0.530646 0.742360
vt 0.518090 0.758083
vt 0.552746 0.733219
vt 0.579135 0.730492
vt 0.605332 0.734681
vt 0.626890 0.745035
vt 0.638553 0.761431
vt 0.589961 0.340971
vt 0.578090 0.768105
vt 0.950472 0.587941
vt 0.858119 0.593846
vt 0.855182 0.508544
vt 0.942522 0.502961
vt 0.930291 0.350991
vt 0.656363 0.248209
vt 0.656363 0.248209
vt 0.656363 0.248209
vt 0.958681 0.670416
vt 0.860109 0.676087
vt 0.040450 0.437460
vt 0.133821 0.436795
vt 0.137104 0.522854
vt 0.038393 0.523561
vt 0.045762 0.044978
vt 0.045749 0.044977
vt 0.045762 0.044978
vt 0.042595 0.353868
vt 0.136105 0.363168
vt 0.599185 0.079376
vt 0.598734 0.172797
vt 0.521554 0.175066
vt 0.513046 0.081302
vt 0.045749 0.044979
vt 0.045750 0.044964
vt 0.045749 0.044979
vt 0.682816 0.076991
vt 0.682339 0.175989
vt 0.267898 0.599173
vt 0.174162 0.603052
vt 0.167993 0.516743
vt 0.266915 0.512651
vt 0.974331 0.863934
vt 0.253355 0.250906
vt 0.253355 0.250906
vt 0.253355 0.250906
vt 0.268739 0.683183
vt 0.174695 0.677728
vt 0.890041 0.938098
vt 0.721442 0.795918
vt 0.808891 0.754480
vt 0.964980 0.941773
vt 0.119678 0.110367
vt 0.283323 0.257333
vt 0.194864 0.295922
vt 0.045092 0.104376
vt 0.038620 0.190984
vt 0.348775 0.077873
vt 0.452975 0.236692
vt 0.266144 0.083172
vt 0.418094 0.323102
vt 0.270999 0.160220
vt 0.199795 0.929124
vt 0.032183 0.788437
vt 0.118856 0.747121
vt 0.274160 0.932598
vt 0.278061 0.846834
vt 0.253355 0.250906
vt 0.045764 0.044978
vt 0.037106 0.715857
vt 0.045762 0.044964
vt 0.656363 0.248209
vt 0.876901 0.075137
vt 0.261552 0.320161
vn -0.305241 -0.947055 0.099573
vn -0.260239 -0.946622 0.190217
vn -0.425930 -0.851864 0.304814
vn -0.496912 -0.852527 0.162100
vn -0.144425 -0.937237 0.317378
vn -0.235592 -0.829873 0.505774
vn -0.000001 -0.932984 0.359919
vn -0.000001 -0.819813 0.572632
vn 0.144425 -0.937236 0.317381
vn 0.235592 -0.829872 0.505775
vn 0.260239 -0.946621 0.190221
vn 0.425932 -0.851862 0.304817
vn 0.305243 -0.947054 0.099573
vn 0.496912 -0.852527 0.162100
vn -0.583051 -0.700165 0.412092
vn -0.678028 -0.700970 0.221178
vn -0.317842 -0.667263 0.673600
vn -0.000000 -0.652576 0.757724
vn 0.317840 -0.667265 0.673599
vn 0.583050 -0.700167 0.412092
vn 0.678026 -0.700972 0.221177
vn -0.709561 -0.498944 0.497572
vn -0.823554 -0.499588 0.268646
vn -0.380061 -0.465316 0.799396
vn 0.000000 -0.450790 0.892630
vn 0.380058 -0.465318 0.799397
vn 0.709561 -0.498944 0.497573
vn 0.823553 -0.499589 0.268646
vn -0.791815 -0.259850 0.552727
vn -0.917960 -0.260164 0.299438
vn -0.418359 -0.238572 0.876390
vn -0.000000 -0.229612 0.973282
vn 0.418360 -0.238570 0.876390
vn 0.791816 -0.259849 0.552725
vn 0.917959 -0.260168 0.299438
vn -0.820391 -0.000000 0.571803
vn -0.950699 0.000000 0.310116
vn -0.431253 -0.000000 0.902231
vn 0.000000 -0.000000 1.000000
vn 0.431252 0.000003 0.902231
vn 0.820393 0.000003 0.571800
vn 0.950699 0.000000 0.310116
vn -0.791815 0.259849 0.552727
vn -0.917961 0.260164 0.299438
vn -0.418358 0.238570 0.876391
vn 0.000000 0.229611 0.973282
vn 0.418360 0.238573 0.876389
vn 0.791816 0.259852 0.552725
vn 0.917959 0.260168 0.299439
vn -0.709560 0.498943 0.497575
vn -0.823554 0.499589 0.268645
vn -0.380058 0.465314 0.799399
vn 0.000000 0.450788 0.892631
vn 0.380059 0.465316 0.799397
vn 0.709561 0.498943 0.497573
vn 0.823553 0.499589 0.268646
vn -0.583052 0.700166 0.412090
vn -0.678028 0.700970 0.221178
vn -0.317842 0.667265 0.673598
vn -0.000000 0.652576 0.757724
vn 0.317842 0.667264 0.673599
vn 0.583052 0.700167 0.412088
vn 0.678026 0.700972 0.221174
vn -0.425932 0.851864 0.304811
vn -0.496913 0.852526 0.162101
vn -0.235593 0.829875 0.505771
vn 0.000000 0.819814 0.572630
vn 0.235593 0.829873 0.505773
vn 0.425932 0.851864 0.304811
vn 0.496912 0.852528 0.162095
vn -0.260241 0.946619 0.190229
vn -0.305244 0.947053 0.099580
vn -0.144425 0.937233 0.317388
vn 0.000000 0.932981 0.359925
vn 0.144425 0.937235 0.317383
vn 0.260239 0.946620 0.190227
vn 0.305243 0.947054 0.099580
vn -0.000001 -0.994868 0.101185
vn 0.000001 0.994867 0.101193
vn -0.858354 0.513057 0.000000
vn -0.858354 0.513057 0.000000
vn -0.858354 0.513057 0.000000
vn -0.858354 0.513057 0.000000
vn 0.000000 0.000000 0.000000
vn 0.000000 0.000000 0.000000
vn 0.000000 0.000000 0.000000
vn 0.000000 0.000000 0.000000
vn 0.857224 0.514944 0.000000
vn 0.857224 0.514944 0.000000
vn 0.857224 0.514944 0.000000
vn 0.511082 -0.149348 0.846458
vn 0.511082 -0.149348 0.846458
vn 0.511082 -0.149348 0.846458
vn 0.511082 -0.149348 0.846458
vn -0.568702 -0.822544 0.000000
vn -0.568702 -0.822544 0.000000
vn -0.568702 -0.822544 0.000000
vn -0.431361 0.902180 0.000000
vn -0.431361 0.902180 0.000000
vn -0.431361 0.902180 0.000000
vn -0.431361 0.902180 0.000000
vn 0.109778 -0.529004 0.841489
vn 0.109778 -0.529004 0.841489
vn 0.109778 -0.529004 0.841489
vn 0.109778 -0.529004 0.841489
vn -0.458942 -0.888466 0.000000
vn -0.458942 -0.888466 0.000000
vn -0.458942 -0.888466 0.000000
vn -0.458942 -0.888466 0.000000
vn 0.000000 0.000000 -0.000000
vn 0.000000 0.000000 -0.000000
vn 0.000000 0.000000 -0.000000
vn 0.000000 0.000000 -0.000000
vn -0.567014 0.823708 0.000000
vn -0.567014 0.823708 0.000000
vn -0.567014 0.823708 0.000000
vn 0.117423 0.519345 0.846459
vn 0.117423 0.519345 0.846459
vn 0.117423 0.519345 0.846459
vn 0.117423 0.519345 0.846459
vn 0.856167 -0.516700 0.000000
vn 0.856167 -0.516700 0.000000
vn 0.856167 -0.516700 0.000000
vn -0.873750 -0.486376 0.000000
vn -0.873750 -0.486376 0.000000
vn -0.873750 -0.486376 0.000000
vn -0.873750 -0.486376 0.000000
vn 0.521203 0.142308 0.841484
vn 0.521203 0.142308 0.841484
vn 0.521203 0.142308 0.841484
vn 0.521203 0.142308 0.841484
vn 0.875114 -0.483917 0.000000
vn 0.875114 -0.483917 0.000000
vn 0.875114 -0.483917 0.000000
vn 0.875114 -0.483917 0.000000
vn -0.000000 0.000000 0.000000
vn -0.000000 0.000000 0.000000
vn -0.000000 0.000000 0.000000
vn -0.000000 0.000000 0.000000
vn -0.839433 -0.543463 0.000000
vn -0.839433 -0.543463 0.000000
vn -0.839433 -0.543463 0.000000
vn -0.515811 0.132084 0.846459
vn -0.515811 0.132084 0.846459
vn -0.515811 0.132084 0.846459
vn -0.515811 0.132084 0.846459
vn 0.540731 0.841196 0.000000
vn 0.540731 0.841196 0.000000
vn 0.540731 0.841196 0.000000
vn 0.461441 -0.887171 0.000000
vn 0.461441 -0.887171 0.000000
vn 0.461441 -0.887171 0.000000
vn 0.461441 -0.887171 0.000000
vn -0.127495 0.525022 0.841485
vn -0.127495 0.525022 0.841485
vn -0.127495 0.525022 0.841485
vn -0.127495 0.525022 0.841485
vn 0.475974 0.879459 0.000000
vn 0.475974 0.879459 0.000000
vn 0.475974 0.879459 0.000000
vn 0.475974 0.879459 0.000000
vn -0.000000 0.000000 0.000000
vn -0.000000 0.000000 0.000000
vn -0.000000 0.000000 0.000000
vn -0.000000 0.000000 0.000000
vn 0.551047 -0.834474 0.000000
vn 0.551047 -0.834474 0.000000
vn 0.551047 -0.834474 0.000000
vn -0.127409 -0.516994 0.846454
vn -0.127409 -0.516994 0.846454
vn -0.127409 -0.516994 0.846454
vn -0.127409 -0.516994 0.846454
vn -0.846049 0.533104 0.000000
vn -0.846049 0.533104 0.000000
vn -0.846049 0.533104 0.000000
vn 0.882962 0.469445 0.000000
vn 0.882962 0.469445 0.000000
vn 0.882962 0.469445 0.000000
vn 0.882962 0.469445 0.000000
vn -0.523850 -0.132239 0.841483
vn -0.523850 -0.132239 0.841483
vn -0.523850 -0.132239 0.841483
vn -0.523850 -0.132239 0.841483
s 1
g Robotto2:Robotto2:Robotto2:Robotto2:Robotto2:Robotto2:Robotto2:Robotto2:Core
usemtl initialShadingGroup
f 1/1/1 2/2/2 9/3/3 8/4/4
f 2/2/2 3/5/5 10/6/6 9/3/3
f 3/5/5 4/7/7 11/8/8 10/6/6
f 4/7/7 5/9/9 12/10/10 11/8/8
f 5/9/9 6/11/11 13/12/12 12/10/10
f 6/11/11 7/13/13 14/14/14 13/12/12
f 8/4/4 9/3/3 16/15/15 15/16/16
f 9/3/3 10/6/6 17/17/17 16/15/15
f 10/6/6 11/8/8 18/18/18 17/17/17
f 11/8/8 12/10/10 19/19/19 18/18/18
f 12/10/10 13/12/12 20/20/20 19/19/19
f 13/12/12 14/14/14 21/21/21 20/20/20
f 15/16/16 16/15/15 23/22/22 22/23/23
f 16/15/15 17/17/17 24/24/24 23/22/22
f 17/17/17 18/18/18 25/25/25 24/24/24
f 18/18/18 19/19/19 26/26/26 25/25/25
f 19/19/19 20/20/20 27/27/27 26/26/26
f 20/20/20 21/21/21 28/28/28 27/27/27
f 22/23/23 23/22/22 30/29/29 29/30/30
f 23/22/22 24/24/24 31/31/31 30/29/29
f 24/24/24 25/25/25 32/32/32 31/31/31
f 25/25/25 26/26/26 33/33/33 32/32/32
f 26/26/26 27/27/27 34/34/34 33/33/33
f 27/27/27 28/28/28 35/35/35 34/34/34
f 29/30/30 30/29/29 37/36/36 36/37/37
f 30/29/29 31/31/31 38/38/38 37/36/36
f 31/31/31 32/32/32 39/39/39 38/38/38
f 32/32/32 33/33/33 40/40/40 39/39/39
f 33/33/33 34/34/34 41/41/41 40/40/40
f 34/34/34 35/35/35 42/42/42 41/41/41
f 36/37/37 37/36/36 44/43/43 43/44/44
f 37/36/36 38/38/38 45/45/45 44/43/43
f 38/38/38 39/39/39 46/46/46 45/45/45
f 39/39/39 40/40/40 47/47/47 46/46/46
f 40/40/40 41/41/41 48/48/48 47/47/47
f 41/41/41 42/42/42 49/49/49 48/48/48
f 43/44/44 44/43/43 51/50/50 50/51/51
f 44/43/43 45/45/45 52/52/52 51/50/50
f 45/45/45 46/46/46 53/53/53 52/52/52
f 46/46/46 47/47/47 54/54/54 53/53/53
f 47/47/47 48/48/48 55/55/55 54/54/54
f 48/48/48 49/49/49 56/56/56 55/55/55
f 50/51/51 51/50/50 58/57/57 57/58/58
f 51/50/50 52/52/52 59/59/59 58/57/57
f 52/52/52 53/53/53 60/60/60 59/59/59
f 53/53/53 54/54/54 61/61/61 60/60/60
f 54/54/54 55/55/55 62/62/62 61/61/61
f 55/55/55 56/56/56 63/63/63 62/62/62
f 57/58/58 58/57/57 65/64/64 64/65/65
f 58/57/57 59/59/59 66/66/66 65/64/64
f 59/59/59 60/60/60 67/67/67 66/66/66
f 60/60/60 61/61/61 68/68/68 67/67/67
f 61/61/61 62/62/62 69/69/69 68/68/68
f 62/62/62 63/63/63 70/70/70 69/69/69
f 64/65/65 65/64/64 72/71/71 71/72/72
f 65/64/64 66/66/66 73/73/73 72/71/71
f 66/66/66 67/67/67 74/74/74 73/73/73
f 67/67/67 68/68/68 75/75/75 74/74/74
f 68/68/68 69/69/69 76/76/76 75/75/75
f 69/69/69 70/70/70 77/77/77 76/76/76
f 2/2/2 1/1/1 78/78/78
f 3/5/5 2/2/2 78/78/78
f 4/7/7 3/5/5 78/78/78
f 5/9/9 4/7/7 78/78/78
f 6/11/11 5/9/9 78/78/78
f 7/13/13 6/11/11 78/78/78
f 71/72/72 72/71/71 79/79/79
f 72/71/71 73/73/73 79/79/79
f 73/73/73 74/74/74 79/79/79
f 74/74/74 75/75/75 79/79/79
f 75/75/75 76/76/76 79/79/79
f 76/76/76 77/77/77 79/79/79
s off
f 87/80/80 88/81/81 84/82/82 83/83/83
f 80/141/84 86/85/85 81/86/86 89/87/87
f 81/84/88 83/83/89 84/82/90
f 81/118/91 84/119/92 88/120/93 89/121/94
f 80/112/95 85/89/96 82/88/97
f 82/88/98 85/89/99 88/81/100 87/80/101
f 89/121/102 88/120/103 85/89/104 80/112/105
f 97/90/106 98/91/107 94/92/108 93/93/109
f 90/140/110 96/94/111 91/95/112 99/96/113
f 91/139/114 93/93/115 94/92/116
f 91/122/117 94/123/118 98/124/119 99/125/120
f 90/126/121 95/98/122 92/97/123
f 92/97/124 95/98/125 98/91/126 97/90/127
f 99/125/128 98/124/129 95/98/130 90/126/131
f 107/99/132 108/100/133 104/101/134 103/102/135
f 100/138/136 106/103/137 101/104/138 109/105/139
f 101/127/140 103/102/141 104/101/142
f 101/127/143 104/101/144 108/128/145 109/129/146
f 100/142/147 105/107/148 102/106/149
f 102/106/150 105/107/151 108/100/152 107/99/153
f 109/129/154 108/128/155 105/130/156 100/131/157
f 117/108/158 118/109/159 114/110/160 113/111/161
f 110/137/162 116/113/163 111/114/164 119/115/165
f 111/143/166 113/111/167 114/110/168
f 111/132/169 114/133/170 118/134/171 119/135/172
f 110/136/173 115/117/174 112/116/175
f 112/116/176 115/117/177 118/109/178 117/108/179
f 119/135/180 118/134/181 115/117/182 110/136/183
