# This file uses centimeters as units for non-parametric coordinates.

mtllib plane_2x2.mtl
g default
v -0.996208 0.000000 6.132112
v 1.003792 0.000000 6.132112
v -0.996208 0.000000 4.132112
v 1.003792 0.000000 4.132112
vt 0.000000 0.000000
vt 1.000000 0.000000
vt 0.000000 1.000000
vt 1.000000 1.000000
vn 0.000000 1.000000 0.000000
vn 0.000000 1.000000 0.000000
vn 0.000000 1.000000 0.000000
vn 0.000000 1.000000 0.000000
s off
g Robotto2:Robotto2:Robotto2:Robotto2:Robotto2:Robotto2:Robotto2:Robotto2:pPlane1
usemtl initialShadingGroup
f 4/4/1 3/3/2 1/1/3 2/2/4
